# xmcd CD database file
#
# Track frame offsets:
#	150
#	13660
#	30072
#	48110
#	65472
#	85125
#	98060
#	111412
#	127462
#	143735
#	156635
#	168187
#	187087
#	209925
#	226350
#
# Disc length: 3219 seconds
#
# Revision: 2
# Processed by: cddbd v1.5.2PL0 Copyright (c) Steve Scherf et al.
# Submitted via: CDex 1.70beta2
#
DISCID=d40c910f
DTITLE=矢野顕子 - PIANO NIGHTLY
DYEAR=1995
DGENRE=JPop
TTITLE0=虹がでたなら
TTITLE1=星の王子さま
TTITLE2=夏のまぼろし
TTITLE3=想い出の散歩道
TTITLE4=WHAT I MEANT TO SAY
TTITLE5=フロッタージュ氏の怪物狩り
TTITLE6=椰子の実
TTITLE7=愛について
TTITLE8=機関車
TTITLE9=恋は桃色
TTITLE10=DADDY'S BABY
TTITLE11=ニューヨーク・コンフィデンシャル
TTITLE12=突然の贈りもの
TTITLE13=いつのまにか晴れ
TTITLE14=NEW SONG
EXTD=YEAR: 1995
EXTT0=
EXTT1=
EXTT2=
EXTT3=
EXTT4=
EXTT5=
EXTT6=
EXTT7=
EXTT8=
EXTT9=
EXTT10=
EXTT11=
EXTT12=
EXTT13=
EXTT14=
PLAYORDER=
